<svg width="80" height="80" viewBox="0 0 80 80" fill="none" xmlns="http://www.w3.org/2000/svg">
<path d="M59.75 5.75C54.85 4.58333 48.2667 4 40 4C31.7 4 25.1167 4.58333 20.25 5.75C15.0167 7.01667 10.9333 9.1 8 12C5.1 14.9333 3.01667 19.0167 1.75 24.25C0.716667 28.65 0.149999 34.4 0.0499992 41.5C0.0499992 41.8333 0.0499992 42.1667 0.0499992 42.5C0.149999 49.6 0.716667 55.35 1.75 59.75C3.01667 65.0167 5.1 69.1 8 72C10.9333 74.9333 15.0167 77.0167 20.25 78.25C25.1167 79.4167 31.7 80 40 80C48.2667 80 54.85 79.4167 59.75 78.25C65.0167 77.0167 69.1 74.9333 72 72C74.9333 69.1 77.0167 65.0167 78.25 59.75C79.2833 55.4167 79.8667 49.75 80 42.75C80 42.65 80 42.5667 80 42.5V41.25C79.8667 34.25 79.2833 28.5833 78.25 24.25C77.0167 19.0167 74.9333 14.9333 72 12C69.1 9.1 65.0167 7.01667 59.75 5.75Z" fill="url(#paint0_linear_1_949)"/>
<path d="M59.75 1.75C54.85 0.583333 48.2667 0 40 0C31.7 0 25.1167 0.583333 20.25 1.75C15.0167 3.01667 10.9333 5.1 8 8C5.1 10.9333 3.01667 15.0167 1.75 20.25C0.583333 25.15 0 31.7333 0 40C0 40.5 0.0166659 41 0.0499992 41.5C0.149999 34.4 0.716667 28.65 1.75 24.25C3.01667 19.0167 5.1 14.9333 8 12C10.9333 9.1 15.0167 7.01667 20.25 5.75C25.1167 4.58333 31.7 4 40 4C48.2667 4 54.85 4.58333 59.75 5.75C65.0167 7.01667 69.1 9.1 72 12C74.9333 14.9333 77.0167 19.0167 78.25 24.25C79.2833 28.5833 79.8667 34.25 80 41.25C80 40.85 80 40.4333 80 40C80 31.7333 79.4167 25.15 78.25 20.25C77.0167 15.0167 74.9333 10.9333 72 8C69.1 5.1 65.0167 3.01667 59.75 1.75Z" fill="url(#paint1_linear_1_949)"/>
<path d="M32.1667 32.9615C30.2333 30.9949 27.8833 30.0115 25.1167 30.0115C22.35 30.0115 20 30.9949 18.0667 32.9615C16.1 34.8949 15.1167 37.2449 15.1167 40.0115H35.1167C35.1167 37.2449 34.1333 34.8949 32.1667 32.9615Z" fill="white"/>
<path d="M29.3667 35.7615C28.2 34.5949 26.7833 34.0115 25.1167 34.0115C23.4833 34.0115 22.0833 34.5949 20.9167 35.7615C19.7167 36.9282 19.1167 38.3449 19.1167 40.0115H31.1167C31.1167 38.3449 30.5333 36.9282 29.3667 35.7615Z" fill="#3D465D"/>
<path d="M62.1667 32.9615C60.2333 30.9949 57.8833 30.0115 55.1167 30.0115C52.35 30.0115 50 30.9949 48.0667 32.9615C46.1 34.8949 45.1167 37.2449 45.1167 40.0115H65.1167C65.1167 37.2449 64.1333 34.8949 62.1667 32.9615Z" fill="white"/>
<path d="M59.3667 35.7615C58.2 34.5949 56.7833 34.0115 55.1167 34.0115C53.4833 34.0115 52.0833 34.5949 50.9167 35.7615C49.7167 36.9282 49.1167 38.3449 49.1167 40.0115H61.1167C61.1167 38.3449 60.5333 36.9282 59.3667 35.7615Z" fill="#3D465D"/>
<path d="M14.0667 32.6115L14.8667 35.5115C15 36.0782 15.3 36.4949 15.7667 36.7615C16.2333 37.0282 16.7333 37.0949 17.2667 36.9615L32.7167 32.8115C33.2833 32.6782 33.7 32.3615 33.9667 31.8615C34.2333 31.4282 34.3 30.9282 34.1667 30.3615L33.3667 27.4615C33.2333 26.9282 32.9333 26.5115 32.4667 26.2115C32 25.9782 31.4833 25.9282 30.9167 26.0615L15.4667 30.2115C14.9333 30.3449 14.5333 30.6449 14.2667 31.1115C14 31.5782 13.9333 32.0782 14.0667 32.6115Z" fill="#3D465D"/>
<path d="M46.3167 26.9615C46.55 27.3949 46.95 27.6782 47.5167 27.8115L62.9667 31.9615C63.5 32.1282 64.0167 32.0949 64.5167 31.8615C64.95 31.5615 65.2333 31.1449 65.3667 30.6115L66.1667 27.7115C66.3 27.1449 66.25 26.6449 66.0167 26.2115C65.7167 25.7115 65.3 25.3782 64.7667 25.2115L49.3167 21.0615C48.75 20.9282 48.25 21.0115 47.8167 21.3115C47.3167 21.5449 47 21.9449 46.8667 22.5115L46.0667 25.4115C45.9333 25.9449 46.0167 26.4615 46.3167 26.9615Z" fill="#3D465D"/>
<path d="M50.0667 46.9115C49.6 46.6115 49.0833 46.5449 48.5167 46.7115C47.9833 46.8449 47.5667 47.1282 47.2667 47.5615C47 47.9282 46.6167 48.2782 46.1167 48.6115C44.8833 49.3782 43.4333 49.7615 41.7667 49.7615C41 49.7615 40.2833 49.6949 39.6167 49.5615C39.05 49.4615 38.5333 49.5615 38.0667 49.8615C37.6 50.0949 37.3 50.4949 37.1667 51.0615C37.0333 51.5615 37.1333 52.0449 37.4667 52.5115C37.7333 52.9115 38.1667 53.1782 38.7667 53.3115C39.6667 53.5115 40.6667 53.6115 41.7667 53.6115C44.3333 53.6115 46.55 53.0115 48.4167 51.8115L48.3667 51.8615C49.5 51.1615 50.3333 50.3782 50.8667 49.5115C51.1333 49.0449 51.2 48.5615 51.0667 48.0615C50.9 47.5282 50.5667 47.1449 50.0667 46.9115Z" fill="#3D465D"/>
<defs>
<linearGradient id="paint0_linear_1_949" x1="40" y1="-1.09798e-07" x2="40" y2="80" gradientUnits="userSpaceOnUse">
<stop stop-color="#A875E9"/>
<stop offset="0.517647" stop-color="#905AE5"/>
<stop offset="1" stop-color="#6548B9"/>
</linearGradient>
<linearGradient id="paint1_linear_1_949" x1="40" y1="0" x2="40" y2="41.5" gradientUnits="userSpaceOnUse">
<stop stop-color="#C28DEF"/>
<stop offset="1" stop-color="#A471E8"/>
</linearGradient>
</defs>
</svg>
